# xmcd
#
# Track frame offsets:
#	150
#	14035
#	29535
#	45775
#	66322
#	85437
#	99092
#	117775
#	131677
#	144562
#	156447
#	184417
#	198615
#	210812
#
# Disc length: 3044 seconds
#
# Revision: 0
# Processed by: cddbd v1.5.1PL2 Copyright (c) Steve Scherf et al.
# Submitted via: EasyCDDAExtractor 9.1.0.1
#
DISCID=c40be20e
DTITLE=Rosey and the Naturals - Behind Bars
DYEAR=1997
DGENRE=Blues
TTITLE0=Intro - You Upset Me
TTITLE1=I'm Goin' Home
TTITLE2=It Shoulda Been Me
TTITLE3=Black Cat Bone
TTITLE4=Feels Like Rain
TTITLE5=I Go Crazy
TTITLE6=Caldonia
TTITLE7=Ain't Doin' Too Bad
TTITLE8=Tore Down
TTITLE9=I'm Ready
TTITLE10=Sweet Little Angel
TTITLE11=Walkin' the Dog
TTITLE12=My Babe
TTITLE13=Hold It Right There
EXTD=
EXTT0=
EXTT1=
EXTT2=
EXTT3=
EXTT4=
EXTT5=
EXTT6=
EXTT7=
EXTT8=
EXTT9=
EXTT10=
EXTT11=
EXTT12=
EXTT13=
PLAYORDER=
